<?xml version="1.0" encoding="UTF-8"?>
<svg xmlns="http://www.w3.org/2000/svg" xmlns:xlink="http://www.w3.org/1999/xlink" width="20px" height="20px" viewBox="0 0 20 20" version="1.1">
<g id="surface1">
<path style=" stroke:none;fill-rule:nonzero;fill:rgb(9.411765%,46.666667%,94.901961%);fill-opacity:1;" d="M 20 10 C 20 4.476562 15.523438 0 10 0 C 4.476562 0 0 4.476562 0 10 C 0 14.992188 3.65625 19.128906 8.4375 19.878906 L 8.4375 12.890625 L 5.898438 12.890625 L 5.898438 10 L 8.4375 10 L 8.4375 7.796875 C 8.4375 5.289062 9.929688 3.90625 12.214844 3.90625 C 13.308594 3.90625 14.453125 4.101562 14.453125 4.101562 L 14.453125 6.5625 L 13.191406 6.5625 C 11.949219 6.5625 11.5625 7.332031 11.5625 8.125 L 11.5625 10 L 14.335938 10 L 13.890625 12.890625 L 11.5625 12.890625 L 11.5625 19.878906 C 16.34375 19.128906 20 14.992188 20 10 Z M 20 10 "/>
<path style=" stroke:none;fill-rule:nonzero;fill:rgb(100%,100%,100%);fill-opacity:1;" d="M 13.894531 12.890625 L 14.335938 10 L 11.5625 10 L 11.5625 8.125 C 11.5625 7.332031 11.949219 6.5625 13.191406 6.5625 L 14.453125 6.5625 L 14.453125 4.101562 C 14.453125 4.101562 13.308594 3.90625 12.214844 3.90625 C 9.929688 3.90625 8.4375 5.289062 8.4375 7.796875 L 8.4375 10 L 5.898438 10 L 5.898438 12.890625 L 8.4375 12.890625 L 8.4375 19.878906 C 8.945312 19.957031 9.46875 20 10 20 C 10.53125 20 11.054688 19.957031 11.5625 19.878906 L 11.5625 12.890625 Z M 13.894531 12.890625 "/>
</g>
</svg>
