<?xml version="1.0" encoding="UTF-8"?>
<svg xmlns="http://www.w3.org/2000/svg" xmlns:xlink="http://www.w3.org/1999/xlink" width="20px" height="20px" viewBox="0 0 20 20" version="1.1">
<defs>
<linearGradient id="linear0" gradientUnits="userSpaceOnUse" x1="146.446503" y1="853.553528" x2="853.553528" y2="146.446503" gradientTransform="matrix(0.02,0,0,0.02,0,0)">
<stop offset="0" style="stop-color:rgb(100%,83.529412%,12.941176%);stop-opacity:1;"/>
<stop offset="0.0551048" style="stop-color:rgb(100%,81.568627%,12.54902%);stop-opacity:1;"/>
<stop offset="0.1241" style="stop-color:rgb(99.607843%,75.294118%,11.764706%);stop-opacity:1;"/>
<stop offset="0.2004" style="stop-color:rgb(98.823529%,65.490196%,10.588235%);stop-opacity:1;"/>
<stop offset="0.2821" style="stop-color:rgb(98.039216%,51.372549%,8.627451%);stop-opacity:1;"/>
<stop offset="0.3681" style="stop-color:rgb(97.254902%,33.333333%,6.27451%);stop-opacity:1;"/>
<stop offset="0.4563" style="stop-color:rgb(96.078431%,11.764706%,3.529412%);stop-opacity:1;"/>
<stop offset="0.5" style="stop-color:rgb(95.294118%,0%,1.960784%);stop-opacity:1;"/>
<stop offset="0.5035" style="stop-color:rgb(94.901961%,0%,2.745098%);stop-opacity:1;"/>
<stop offset="0.5966" style="stop-color:rgb(88.235294%,0%,23.137255%);stop-opacity:1;"/>
<stop offset="0.6879" style="stop-color:rgb(82.745098%,0%,40.392157%);stop-opacity:1;"/>
<stop offset="0.7757" style="stop-color:rgb(78.039216%,0%,53.333333%);stop-opacity:1;"/>
<stop offset="0.8589" style="stop-color:rgb(74.901961%,0%,62.745098%);stop-opacity:1;"/>
<stop offset="0.9357" style="stop-color:rgb(73.333333%,0%,68.627451%);stop-opacity:1;"/>
<stop offset="1" style="stop-color:rgb(72.54902%,0%,70.588235%);stop-opacity:1;"/>
</linearGradient>
</defs>
<g id="surface1">
<path style=" stroke:none;fill-rule:nonzero;fill:url(#linear0);" d="M 10 20 C 4.476562 20 0 15.523438 0 10 C 0 4.476562 4.476562 0 10 0 C 15.523438 0 20 4.476562 20 10 C 20 15.523438 15.523438 20 10 20 Z M 10 20 "/>
<path style=" stroke:none;fill-rule:nonzero;fill:rgb(100%,100%,100%);fill-opacity:1;" d="M 10 4.402344 C 11.820312 4.402344 12.039062 4.410156 12.757812 4.445312 C 13.425781 4.472656 13.785156 4.585938 14.027344 4.679688 C 14.34375 4.804688 14.570312 4.953125 14.808594 5.191406 C 15.046875 5.429688 15.195312 5.65625 15.320312 5.972656 C 15.414062 6.214844 15.523438 6.574219 15.554688 7.242188 C 15.589844 7.960938 15.597656 8.179688 15.597656 10 C 15.597656 11.820312 15.589844 12.039062 15.554688 12.757812 C 15.527344 13.425781 15.414062 13.785156 15.320312 14.027344 C 15.195312 14.34375 15.046875 14.570312 14.808594 14.808594 C 14.570312 15.046875 14.34375 15.195312 14.027344 15.320312 C 13.785156 15.414062 13.425781 15.523438 12.757812 15.554688 C 12.039062 15.589844 11.820312 15.597656 10 15.597656 C 8.179688 15.597656 7.960938 15.589844 7.242188 15.554688 C 6.574219 15.527344 6.214844 15.414062 5.972656 15.320312 C 5.65625 15.195312 5.429688 15.046875 5.191406 14.808594 C 4.953125 14.570312 4.804688 14.34375 4.679688 14.027344 C 4.585938 13.785156 4.476562 13.425781 4.445312 12.757812 C 4.410156 12.039062 4.402344 11.820312 4.402344 10 C 4.402344 8.179688 4.410156 7.960938 4.445312 7.242188 C 4.472656 6.574219 4.585938 6.214844 4.679688 5.972656 C 4.804688 5.65625 4.953125 5.429688 5.191406 5.191406 C 5.429688 4.953125 5.65625 4.804688 5.972656 4.679688 C 6.214844 4.585938 6.574219 4.476562 7.242188 4.445312 C 7.960938 4.410156 8.179688 4.402344 10 4.402344 M 10 3.175781 C 8.144531 3.175781 7.914062 3.183594 7.1875 3.214844 C 6.460938 3.25 5.964844 3.363281 5.527344 3.535156 C 5.078125 3.707031 4.699219 3.941406 4.320312 4.320312 C 3.941406 4.699219 3.707031 5.078125 3.53125 5.53125 C 3.363281 5.964844 3.246094 6.460938 3.214844 7.1875 C 3.179688 7.914062 3.171875 8.148438 3.171875 10.003906 C 3.171875 11.855469 3.179688 12.089844 3.214844 12.816406 C 3.246094 13.542969 3.363281 14.039062 3.53125 14.472656 C 3.707031 14.921875 3.941406 15.300781 4.320312 15.679688 C 4.699219 16.058594 5.078125 16.292969 5.53125 16.46875 C 5.964844 16.636719 6.460938 16.753906 7.1875 16.785156 C 7.914062 16.820312 8.148438 16.828125 10.003906 16.828125 C 11.855469 16.828125 12.089844 16.820312 12.816406 16.785156 C 13.542969 16.753906 14.039062 16.636719 14.472656 16.46875 C 14.921875 16.292969 15.300781 16.058594 15.679688 15.679688 C 16.058594 15.300781 16.292969 14.921875 16.46875 14.46875 C 16.636719 14.035156 16.753906 13.539062 16.785156 12.8125 C 16.820312 12.085938 16.828125 11.851562 16.828125 9.996094 C 16.828125 8.144531 16.820312 7.910156 16.785156 7.183594 C 16.753906 6.457031 16.636719 5.960938 16.46875 5.527344 C 16.292969 5.078125 16.058594 4.699219 15.679688 4.320312 C 15.300781 3.941406 14.921875 3.707031 14.46875 3.53125 C 14.035156 3.363281 13.539062 3.246094 12.8125 3.214844 C 12.085938 3.183594 11.855469 3.175781 10 3.175781 Z M 10 3.175781 "/>
<path style=" stroke:none;fill-rule:nonzero;fill:rgb(100%,100%,100%);fill-opacity:1;" d="M 10 6.492188 C 8.0625 6.492188 6.492188 8.0625 6.492188 10 C 6.492188 11.9375 8.0625 13.507812 10 13.507812 C 11.9375 13.507812 13.507812 11.9375 13.507812 10 C 13.507812 8.0625 11.9375 6.492188 10 6.492188 Z M 10 12.277344 C 8.742188 12.277344 7.722656 11.257812 7.722656 10 C 7.722656 8.742188 8.742188 7.722656 10 7.722656 C 11.257812 7.722656 12.277344 8.742188 12.277344 10 C 12.277344 11.257812 11.257812 12.277344 10 12.277344 Z M 10 12.277344 "/>
<path style=" stroke:none;fill-rule:nonzero;fill:rgb(100%,100%,100%);fill-opacity:1;" d="M 14.464844 6.355469 C 14.464844 5.902344 14.097656 5.535156 13.644531 5.535156 C 13.191406 5.535156 12.824219 5.902344 12.824219 6.355469 C 12.824219 6.808594 13.191406 7.175781 13.644531 7.175781 C 14.097656 7.175781 14.464844 6.808594 14.464844 6.355469 Z M 14.464844 6.355469 "/>
</g>
</svg>
