<?xml version="1.0" encoding="UTF-8"?>
<svg xmlns="http://www.w3.org/2000/svg" xmlns:xlink="http://www.w3.org/1999/xlink" width="20px" height="20px" viewBox="0 0 20 20" version="1.1">
<g id="surface1">
<path style=" stroke:none;fill-rule:nonzero;fill:rgb(0%,47.058824%,70.980394%);fill-opacity:1;" d="M 10 20 C 4.476562 20 0 15.523438 0 10 C 0 4.476562 4.476562 0 10 0 C 15.523438 0 20 4.476562 20 10 C 20 15.523438 15.523438 20 10 20 Z M 10 20 "/>
<path style=" stroke:none;fill-rule:nonzero;fill:rgb(100%,100%,100%);fill-opacity:1;" d="M 3.683594 7.746094 L 6.34375 7.746094 L 6.34375 16.300781 L 3.683594 16.300781 Z M 5.015625 3.492188 C 5.863281 3.492188 6.554688 4.183594 6.554688 5.035156 C 6.554688 5.886719 5.863281 6.578125 5.015625 6.578125 C 4.160156 6.578125 3.472656 5.886719 3.472656 5.035156 C 3.46875 4.1875 4.160156 3.492188 5.015625 3.492188 "/>
<path style=" stroke:none;fill-rule:nonzero;fill:rgb(100%,100%,100%);fill-opacity:1;" d="M 8.011719 7.746094 L 10.558594 7.746094 L 10.558594 8.914062 L 10.597656 8.914062 C 10.949219 8.242188 11.816406 7.53125 13.113281 7.53125 C 15.804688 7.53125 16.300781 9.304688 16.300781 11.605469 L 16.300781 16.300781 L 13.644531 16.300781 L 13.644531 12.140625 C 13.644531 11.148438 13.625 9.875 12.261719 9.875 C 10.878906 9.875 10.664062 10.953125 10.664062 12.070312 L 10.664062 16.300781 L 8.011719 16.300781 Z M 8.011719 7.746094 "/>
</g>
</svg>
